<svg xmlns="http://www.w3.org/2000/svg" width="45" height="36" viewBox="0 0 45 36" fill="none">
    <path d="M21.0924 29.0849C21.1386 28.9334 21.2783 28.8299 21.4366 28.8299C21.7642 28.8299 22.1866 28.8299 22.5977 28.8299H23.2028C23.4446 28.8299 23.6177 29.0637 23.5471 29.295L21.7628 35.1418C21.6073 35.6515 21.1356 35.9999 20.6011 36H15.5263C14.988 36 14.5139 35.6466 14.3615 35.1319L14.058 34.1061C13.9898 33.8754 14.1627 33.6439 14.4032 33.6439H18.8014C19.3358 33.6439 19.8075 33.2954 19.9631 32.7858L21.0924 29.0849Z" fill="white" style="fill:white;fill-opacity:1;"/>
    <path d="M43.7849 9.59091C44.5959 9.59098 45.179 10.3683 44.9497 11.1436L37.8517 35.1319C37.6994 35.6466 37.2252 36 36.6869 36H31.6121C31.0776 36 30.606 35.6515 30.4504 35.1418L30.1353 34.109C30.0647 33.8777 30.2377 33.6439 30.4796 33.6439H34.9033C35.4416 33.6439 35.9158 33.2905 36.0681 32.7758L42.8521 9.84876C42.8973 9.69584 43.0378 9.59091 43.1973 9.59091H43.7849Z" fill="white" style="fill:white;fill-opacity:1;"/>
    <path d="M18.7762 20.0166C18.8112 19.9022 18.9737 19.9022 19.0087 20.0166L20.187 23.8782C20.2184 23.9809 20.2184 24.0907 20.187 24.1934L18.3038 30.3649C18.1482 30.8746 17.6765 31.223 17.142 31.2231H12.0673C11.5289 31.2231 11.0548 30.8697 10.9024 30.355L10.5879 29.2921C10.5196 29.0614 10.6915 28.8299 10.9321 28.8299C11.8626 28.8299 13.928 28.8299 15.186 28.8299C15.7727 28.8299 16.2225 28.3829 16.3479 27.9718L18.7762 20.0166Z" fill="white" style="fill:white;fill-opacity:1;"/>
    <path d="M40.3258 4.81401C41.1368 4.81411 41.72 5.59138 41.4906 6.36675L34.3926 30.355C34.2403 30.8697 33.7661 31.2231 33.2278 31.2231H28.153C27.6185 31.2231 27.1469 30.8746 26.9913 30.3649L26.6648 29.295C26.5942 29.0637 26.7673 28.8299 27.0091 28.8299H31.2879C31.8262 28.8299 32.3004 28.4765 32.4527 27.9618L39.2263 5.07186C39.2715 4.91894 39.412 4.81401 39.5715 4.81401H40.3258Z" fill="white" style="fill:white;fill-opacity:1;"/>
    <path d="M6.63789 0C7.20705 0 7.69984 0.393976 7.82333 0.947767L11.2117 16.1451C11.2234 16.1973 11.2653 16.2363 11.3166 16.2456C11.3238 16.2469 11.3313 16.2475 11.3389 16.2475C11.3985 16.2473 11.4505 16.2073 11.4658 16.1499L15.4984 0.901903C15.6389 0.370362 16.1212 0 16.6726 0H21.1134C21.6653 0 22.1478 0.370848 22.288 0.902849L26.3196 16.2016C26.3336 16.2545 26.3789 16.292 26.4325 16.2978C26.4368 16.2983 26.441 16.299 26.4453 16.299C26.5069 16.2989 26.5603 16.2563 26.5736 16.1964L29.9639 0.948476C30.0871 0.394336 30.5802 0 31.1496 0H36.5716C37.3827 4.82778e-06 37.9659 0.777313 37.7364 1.55274L30.6385 25.541C30.4862 26.0557 30.0122 26.409 29.4739 26.4091H24.3991C23.8646 26.4091 23.3927 26.0607 23.2372 25.5509L19.026 11.7557C19.0082 11.6973 18.9541 11.6574 18.8929 11.6571C18.8317 11.6574 18.7777 11.6973 18.7599 11.7557L14.5496 25.5509C14.394 26.0606 13.9224 26.4091 13.3879 26.4091H8.31312C7.77474 26.4091 7.3006 26.0557 7.14831 25.541L0.0503549 1.55274C-0.17904 0.777346 0.404123 5.67011e-05 1.21516 0H6.63789Z" fill="white" style="fill:white;fill-opacity:1;"/>
</svg>
